<?xml version="1.0" standalone="no"?>
<!DOCTYPE svg PUBLIC "-//W3C//DTD SVG 20010904//EN"
 "http://www.w3.org/TR/2001/REC-SVG-20010904/DTD/svg10.dtd">
<svg version="1.0" xmlns="http://www.w3.org/2000/svg"
 width="300.000000pt" height="300.000000pt" viewBox="0 0 300.000000 300.000000"
 preserveAspectRatio="xMidYMid meet">
<metadata>
Created by potrace 1.10, written by Peter Selinger 2001-2011
</metadata>
<g transform="translate(0.000000,300.000000) scale(0.100000,-0.100000)"
fill="#000000" stroke="none">
<path d="M1018 1813 l-37 -37 -24 22 c-13 12 -26 22 -30 22 -4 0 -7 -23 -7
-52 0 -49 -3 -55 -50 -103 l-49 -50 -1 -228 c-1 -126 1 -231 4 -235 3 -3 6 98
6 224 l0 230 45 44 45 44 0 -272 0 -272 190 0 190 0 0 228 0 227 -123 123
-122 122 -37 -37z m272 -435 l0 -218 -85 0 -85 0 0 48 c0 26 -3 64 -6 85 l-7
38 -51 -3 -51 -3 -3 -82 -3 -83 -29 0 -29 0 -3 273 c-3 270 -3 272 20 297 l22
25 90 -90 90 -90 0 -97 c0 -54 3 -98 8 -98 4 0 6 46 4 103 l-3 104 -89 88 -90
89 32 33 32 33 118 -117 118 -118 0 -217z m-336 404 c15 -18 15 -20 -4 -37
-20 -18 -20 -18 -20 18 0 43 1 43 24 19z m146 -547 l0 -75 -40 0 -40 0 0 75 0
75 40 0 40 0 0 -75z"/>
<path d="M2035 1620 c-3 -5 -12 -7 -19 -4 -7 3 -18 -1 -24 -9 -10 -11 -6 -14
18 -14 17 0 28 3 25 5 -3 3 3 11 13 18 9 8 12 14 5 14 -6 0 -14 -4 -18 -10z"/>
<path d="M1557 1607 c-4 -10 3 -14 24 -14 17 0 28 5 26 11 -5 17 -44 19 -50 3z"/>
<path d="M1380 1513 c0 -42 4 -73 10 -73 6 0 10 23 10 51 l0 50 41 -48 c23
-26 46 -49 50 -51 5 -2 9 28 9 67 0 41 -4 71 -10 71 -5 0 -10 -24 -10 -52 l0
-53 -50 55 -49 55 -1 -72z"/>
<path d="M1537 1562 c-19 -21 -22 -73 -7 -103 13 -24 72 -26 94 -3 22 22 21
87 -2 107 -24 22 -65 21 -85 -1z m81 -49 c3 -34 -1 -44 -17 -53 -34 -18 -61 3
-61 49 0 46 6 53 45 49 28 -3 30 -6 33 -45z"/>
<path d="M1660 1510 c0 -40 4 -70 10 -70 6 0 10 30 10 70 0 40 -4 70 -10 70
-6 0 -10 -30 -10 -70z"/>
<path d="M1710 1570 c0 -5 9 -10 20 -10 18 0 20 -7 20 -60 0 -33 4 -60 10 -60
6 0 10 27 10 60 0 57 1 60 25 60 14 0 25 5 25 10 0 6 -25 10 -55 10 -30 0 -55
-4 -55 -10z"/>
<path d="M1830 1510 c0 -40 4 -70 10 -70 6 0 10 11 10 25 0 23 4 25 40 25 38
0 40 -1 34 -25 -4 -15 -2 -25 5 -25 7 0 11 23 11 60 0 33 0 63 1 67 0 4 -5 9
-11 11 -9 3 -11 -7 -8 -32 4 -36 4 -36 -34 -36 -37 0 -38 1 -38 35 0 19 -4 35
-10 35 -6 0 -10 -30 -10 -70z"/>
<path d="M1982 1528 c-11 -29 -23 -61 -27 -70 -4 -10 -3 -18 3 -18 6 0 14 9
17 20 4 14 15 20 35 20 20 0 31 -6 35 -20 5 -17 25 -29 25 -15 0 15 -53 135
-60 135 -5 0 -17 -24 -28 -52z m42 -4 c9 -23 8 -24 -14 -24 -11 0 -20 2 -20 4
0 12 13 36 20 36 4 0 11 -7 14 -16z"/>
<path d="M2070 1570 c0 -5 11 -10 25 -10 24 0 25 -3 25 -60 0 -33 4 -60 10
-60 6 0 10 27 10 60 0 58 1 60 26 60 14 0 23 4 19 10 -3 6 -31 10 -61 10 -30
0 -54 -4 -54 -10z"/>
<path d="M1380 1330 c0 -40 4 -70 10 -70 6 0 10 11 10 24 0 21 5 25 38 29 l37
4 -37 1 c-35 2 -38 4 -38 32 0 28 2 30 40 30 22 0 40 5 40 10 0 6 -22 10 -50
10 l-50 0 0 -70z"/>
<path d="M1490 1333 c0 -82 17 -100 22 -23 l3 49 40 -49 c22 -27 43 -49 48
-50 4 0 7 32 7 70 0 40 -4 70 -10 70 -5 0 -10 -23 -10 -52 l0 -52 -50 55 -49
54 -1 -72z"/>
<path d="M1630 1330 l0 -70 50 0 c30 0 50 4 50 11 0 7 -15 10 -40 7 -36 -3
-40 -1 -40 19 0 20 5 23 36 23 20 0 33 4 29 10 -3 5 -19 7 -35 3 -27 -5 -30
-3 -30 21 0 24 3 26 40 26 22 0 40 5 40 10 0 6 -22 10 -50 10 l-50 0 0 -70z"/>
<path d="M1756 1387 c-27 -20 -16 -50 24 -63 59 -19 48 -59 -14 -47 -21 4 -27
3 -22 -5 12 -20 84 -15 95 6 13 25 -1 44 -41 58 -42 14 -44 38 -3 41 49 2 51
3 35 13 -21 14 -53 12 -74 -3z"/>
<path d="M1850 1390 c0 -5 11 -10 25 -10 24 0 25 -3 25 -60 0 -33 4 -60 10
-60 6 0 10 27 10 60 0 58 1 60 26 60 14 0 23 4 19 10 -3 6 -31 10 -61 10 -30
0 -54 -4 -54 -10z"/>
<path d="M1364 1199 c-3 -6 1 -18 10 -27 13 -13 18 -14 28 -3 11 10 10 12 -1
9 -21 -5 -25 20 -4 25 15 4 14 5 -4 6 -12 0 -25 -4 -29 -10z"/>
<path d="M1420 1185 c0 -23 3 -27 10 -15 9 13 11 13 20 0 7 -12 10 -8 10 15 0
23 -3 27 -10 15 -9 -13 -11 -13 -20 0 -7 12 -10 8 -10 -15z"/>
<path d="M1476 1194 c-10 -25 -7 -30 14 -30 11 0 20 3 20 7 0 15 -12 39 -20
39 -4 0 -11 -7 -14 -16z"/>
<path d="M1547 1197 c-7 -19 8 -43 18 -28 5 9 10 9 20 1 16 -13 35 -5 34 13 0
9 -2 9 -6 0 -7 -18 -23 -16 -23 1 0 8 8 17 18 19 13 4 12 5 -5 6 -12 0 -24 -5
-26 -11 -4 -10 -6 -10 -6 0 -1 16 -18 15 -24 -1z"/>
<path d="M1630 1185 c0 -20 5 -25 23 -24 19 1 19 2 3 6 -15 4 -16 7 -5 14 12
7 12 9 -1 9 -13 0 -13 1 0 10 13 8 12 10 -2 10 -13 0 -18 -8 -18 -25z"/>
<path d="M1696 1185 c7 -23 12 -30 18 -24 2 2 6 13 10 24 5 16 1 21 -14 21
-15 0 -19 -5 -14 -21z"/>
<path d="M1740 1189 c0 -24 25 -35 44 -20 11 9 15 9 18 0 7 -21 38 -1 37 23 0
23 0 23 -11 -2 -11 -24 -12 -24 -15 -4 -3 16 -12 21 -38 22 -29 1 -35 -2 -35
-19z"/>
<path d="M1850 1187 c0 -32 35 -34 38 -1 1 18 -3 24 -18 24 -14 0 -20 -7 -20
-23z"/>
<path d="M1921 1188 c-1 -24 3 -27 24 -26 19 2 25 8 25 25 0 13 -4 23 -10 23
-5 0 -10 -9 -10 -20 0 -27 -18 -25 -23 3 -4 19 -4 18 -6 -5z"/>
<path d="M2020 1185 c0 -20 5 -25 23 -24 19 1 19 2 3 6 -15 4 -16 7 -5 14 12
7 12 9 -1 10 -10 0 -8 3 5 9 19 8 19 9 -2 9 -18 1 -23 -5 -23 -24z"/>
</g>
</svg>
